<svg width="200" height="200" viewBox="0 0 200 200" fill="none" xmlns="http://www.w3.org/2000/svg">
<path d="M110.41 0H89.833C84.4694 0 80.1214 4.34675 80.1214 9.70874V30.2791C80.1214 35.6411 84.4694 39.9879 89.833 39.9879H110.41C115.773 39.9879 120.121 35.6411 120.121 30.2791V9.70874C120.121 4.34675 115.773 0 110.41 0Z" fill="#421B30"/>
<path d="M30.2883 80.0364H9.71168C4.34807 80.0364 0 84.3832 0 89.7452V110.316C0 115.678 4.34807 120.024 9.71168 120.024H30.2883C35.6519 120.024 40 115.678 40 110.316V89.7452C40 84.3832 35.6519 80.0364 30.2883 80.0364Z" fill="#421B30"/>
<path d="M190.288 80.0364H169.712C164.348 80.0364 160 84.3832 160 89.7452V110.316C160 115.678 164.348 120.024 169.712 120.024H190.288C195.652 120.024 200 115.678 200 110.316V89.7452C200 84.3832 195.652 80.0364 190.288 80.0364Z" fill="#421B30"/>
<path d="M150.288 120.024H129.712C124.346 120.024 120 115.676 120 110.316V89.7452C120 84.3811 124.346 80.0364 129.712 80.0364H150.288C155.65 80.0364 160 75.6877 160 70.3277V49.7573C160 44.3932 155.65 40.0485 150.288 40.0485H129.712C124.346 40.0485 120 44.3932 120 49.7573V70.3277C120 75.6877 115.65 80.0364 110.288 80.0364H89.7116C84.3459 80.0364 80 75.6877 80 70.3277V49.7573C80 44.3932 75.6499 40.0485 70.2883 40.0485H49.7117C44.346 40.0485 40 44.3932 40 49.7573V70.3277C40 75.6877 44.346 80.0364 49.7117 80.0364H70.2883C75.6499 80.0364 80 84.3811 80 89.7452V110.316C80 115.676 75.6499 120.024 70.2883 120.024H49.7117C44.346 120.024 40 124.369 40 129.733V150.303C40 155.663 44.346 160.012 49.7117 160.012H70.2883C75.6499 160.012 80 155.663 80 150.303V129.733C80 124.369 84.3459 120.024 89.7116 120.024H110.288C115.65 120.024 120 124.369 120 129.733V150.303C120 155.663 124.346 160.012 129.712 160.012H150.288C155.65 160.012 160 155.663 160 150.303V129.733C160 124.369 155.65 120.024 150.288 120.024Z" fill="#421B30"/>
<path d="M110.288 160.012H89.7116C84.348 160.012 80 164.359 80 169.721V190.291C80 195.653 84.348 200 89.7116 200H110.288C115.652 200 120 195.653 120 190.291V169.721C120 164.359 115.652 160.012 110.288 160.012Z" fill="#421B30"/>
</svg>
